<svg width="247" height="153" viewBox="0 0 247 153" fill="none" xmlns="http://www.w3.org/2000/svg">
<path d="M120.339 86.8285C119.217 87.9533 118.586 89.4777 118.586 91.0671V147C118.586 150.314 121.272 153 124.586 153H138.269C141.583 153 144.269 150.314 144.269 147V94.2692C144.269 90.9555 146.955 88.2692 150.269 88.2692H215.317C218.631 88.2692 221.317 90.9555 221.317 94.2692V147C221.317 150.314 224.003 153 227.317 153H241C244.314 153 247 150.314 247 147V6C247 2.68629 244.314 0 241 0H227.317C224.003 0 221.317 2.68629 221.317 6V56.7692C221.317 60.0829 218.631 62.7692 215.317 62.7692H146.842C145.248 62.7692 143.721 63.4029 142.595 64.5306L120.339 86.8285Z" fill="white"/>
<path d="M142.516 29.8285C143.638 28.7036 144.269 27.1792 144.269 25.5899V6C144.269 2.68629 141.583 0 138.269 0H124.586C121.272 0 118.586 2.68629 118.586 6V48.9684C118.586 50.7511 120.742 51.6431 122.002 50.3813L142.516 29.8285Z" fill="white"/>
<path d="M0 4C0 1.79086 1.79086 0 4 0H21.6632C23.8724 0 25.6632 1.79086 25.6632 4V90.3653C25.6632 91.9561 25.0315 93.4817 23.907 94.6069L3.41458 115.11C2.1548 116.37 0 115.478 0 113.696V4Z" fill="white"/>
<path d="M100.679 147C100.679 150.314 97.9926 153 94.6789 153H5.03777C3.25621 153 2.36377 150.846 3.62319 149.586L23.9404 129.258C25.0657 128.133 26.5923 127.5 28.1841 127.5H94.6788C97.9926 127.5 100.679 130.186 100.679 133.5V147Z" fill="white"/>
</svg>
